<svg width="122" height="19" viewBox="0 0 122 19" fill="none" xmlns="http://www.w3.org/2000/svg">
<path d="M12.952 13.608C12.952 14.456 12.736 15.216 12.304 15.888C11.872 16.544 11.288 17.064 10.552 17.448C9.832 17.816 9.04 18 8.176 18H0.136V0.959999H8.344C9.144 0.959999 9.832 1.176 10.408 1.608C10.984 2.024 11.432 2.568 11.752 3.24C12.072 3.896 12.232 4.584 12.232 5.304C12.232 6.152 12.016 6.936 11.584 7.656C11.152 8.376 10.552 8.912 9.784 9.264C10.744 9.552 11.512 10.088 12.088 10.872C12.664 11.656 12.952 12.568 12.952 13.608ZM1.816 2.424V8.712H7.672C8.232 8.712 8.728 8.568 9.16 8.28C9.608 7.976 9.952 7.592 10.192 7.128C10.448 6.648 10.576 6.128 10.576 5.568C10.576 4.992 10.456 4.464 10.216 3.984C9.976 3.504 9.648 3.128 9.232 2.856C8.816 2.568 8.344 2.424 7.816 2.424H1.816ZM11.272 13.32C11.272 12.76 11.144 12.232 10.888 11.736C10.632 11.24 10.28 10.84 9.832 10.536C9.4 10.232 8.904 10.08 8.344 10.08H1.816V16.536H8.176C8.752 16.536 9.272 16.384 9.736 16.08C10.2 15.776 10.568 15.384 10.84 14.904C11.128 14.408 11.272 13.88 11.272 13.32ZM27.5684 16.512V18H16.1204V0.959999H27.3524V2.448H17.8004V8.592H26.1284V10.008H17.8004V16.512H27.5684ZM30.7454 18V0.959999H37.9454C38.6814 0.959999 39.3534 1.112 39.9614 1.416C40.5854 1.72 41.1214 2.136 41.5694 2.664C42.0174 3.176 42.3614 3.752 42.6014 4.392C42.8574 5.016 42.9854 5.656 42.9854 6.312C42.9854 7.144 42.8254 7.92 42.5054 8.64C42.2014 9.36 41.7614 9.968 41.1854 10.464C40.6094 10.96 39.9454 11.28 39.1934 11.424L43.3694 18H41.4734L37.4654 11.712H32.4254V18H30.7454ZM32.4254 10.224H37.9934C38.6654 10.224 39.2494 10.04 39.7454 9.672C40.2414 9.288 40.6254 8.8 40.8974 8.208C41.1694 7.616 41.3054 6.984 41.3054 6.312C41.3054 5.624 41.1454 4.992 40.8254 4.416C40.5214 3.824 40.1054 3.352 39.5774 3C39.0494 2.632 38.4734 2.448 37.8494 2.448H32.4254V10.224ZM56.3851 4.152C55.9051 3.624 55.2651 3.192 54.4651 2.856C53.6651 2.504 52.7531 2.328 51.7291 2.328C50.2251 2.328 49.1291 2.616 48.4411 3.192C47.7531 3.752 47.4091 4.52 47.4091 5.496C47.4091 6.168 47.5771 6.696 47.9131 7.08C48.2491 7.464 48.7611 7.784 49.4491 8.04C50.1531 8.28 51.0491 8.52 52.1371 8.76C53.3531 9.016 54.4011 9.32 55.2811 9.672C56.1611 10.024 56.8411 10.504 57.3211 11.112C57.8011 11.704 58.0411 12.512 58.0411 13.536C58.0411 14.576 57.7771 15.44 57.2491 16.128C56.7211 16.816 55.9931 17.328 55.0651 17.664C54.1371 17.984 53.0811 18.144 51.8971 18.144C49.2411 18.144 46.9611 17.32 45.0571 15.672L45.8971 14.304C46.5051 14.944 47.3371 15.496 48.3931 15.96C49.4651 16.424 50.6491 16.656 51.9451 16.656C53.2891 16.656 54.3451 16.408 55.1131 15.912C55.8811 15.416 56.2651 14.68 56.2651 13.704C56.2651 13 56.0731 12.44 55.6891 12.024C55.3051 11.592 54.7291 11.24 53.9611 10.968C53.1931 10.696 52.2491 10.432 51.1291 10.176C49.9451 9.904 48.9451 9.6 48.1291 9.264C47.3291 8.928 46.7211 8.488 46.3051 7.944C45.8891 7.4 45.6811 6.664 45.6811 5.736C45.6811 4.68 45.9371 3.792 46.4491 3.072C46.9771 2.336 47.6971 1.784 48.6091 1.416C49.5211 1.032 50.5691 0.839999 51.7531 0.839999C52.8731 0.839999 53.8811 1.016 54.7771 1.368C55.6731 1.704 56.4811 2.184 57.2011 2.808L56.3851 4.152ZM59.8752 9.36C59.8752 8.336 60.0512 7.32 60.4032 6.312C60.7712 5.304 61.2992 4.392 61.9872 3.576C62.6752 2.744 63.5232 2.088 64.5312 1.608C65.5392 1.112 66.6832 0.863999 67.9632 0.863999C69.4672 0.863999 70.7632 1.216 71.8512 1.92C72.9392 2.608 73.7392 3.496 74.2512 4.584L72.9312 5.4C72.5632 4.648 72.0992 4.056 71.5392 3.624C70.9792 3.176 70.3792 2.856 69.7392 2.664C69.1152 2.472 68.4912 2.376 67.8672 2.376C66.8432 2.376 65.9392 2.584 65.1552 3C64.3712 3.4 63.7072 3.944 63.1632 4.632C62.6352 5.32 62.2352 6.08 61.9632 6.912C61.6912 7.744 61.5552 8.592 61.5552 9.456C61.5552 10.4 61.7152 11.304 62.0352 12.168C62.3552 13.016 62.8032 13.776 63.3792 14.448C63.9552 15.12 64.6272 15.656 65.3952 16.056C66.1792 16.44 67.0272 16.632 67.9392 16.632C68.5792 16.632 69.2352 16.52 69.9072 16.296C70.5792 16.072 71.2032 15.728 71.7792 15.264C72.3552 14.8 72.8272 14.2 73.1952 13.464L74.5872 14.184C74.2192 15.032 73.6672 15.752 72.9312 16.344C72.2112 16.936 71.3952 17.384 70.4832 17.688C69.5872 17.992 68.7072 18.144 67.8432 18.144C66.6752 18.144 65.6032 17.896 64.6272 17.4C63.6512 16.888 62.8032 16.216 62.0832 15.384C61.3792 14.536 60.8352 13.592 60.4512 12.552C60.0672 11.496 59.8752 10.432 59.8752 9.36ZM90.8963 0.959999V18H89.2403V10.032H79.1363V18H77.4563V0.959999H79.1363V8.544H89.2403V0.959999H90.8963ZM106.623 16.512V18H95.1751V0.959999H106.407V2.448H96.8551V8.592H105.183V10.008H96.8551V16.512H106.623ZM108.408 16.68L120 2.448H108.6V0.959999H121.944V2.28L110.496 16.512H121.92V18H108.408V16.68Z" fill="black"/>
</svg>
